{
    "accessors" : [
        {
            "bufferView" : 0, 
            "componentType" : 5121, 
            "count" : 378, 
            "max" : [
                255
            ], 
            "min" : [
                0
            ], 
            "type" : "SCALAR"
        }, 
        {
            "bufferView" : 1, 
            "componentType" : 5126, 
            "count" : 256, 
            "max" : [
                0.9999997615814209, 
                0.5110571384429932, 
                0.9999997019767761
            ], 
            "min" : [
                -0.9999996423721313, 
                -0.48894280195236206, 
                -0.9999995231628418
            ], 
            "type" : "VEC3"
        }, 
        {
            "bufferView" : 2, 
            "componentType" : 5126, 
            "count" : 256, 
            "max" : [
                0.9626372456550598, 
                1.0, 
                0.9626373648643494
            ], 
            "min" : [
                -0.9626373648643494, 
                -0.9800476431846619, 
                -0.9626373648643494
            ], 
            "type" : "VEC3"
        }, 
        {
            "bufferView" : 3, 
            "componentType" : 5126, 
            "count" : 256, 
            "max" : [
                0.9246781468391418, 
                0.8785764276981354
            ], 
            "min" : [
                0.03943212330341339, 
                0.25844746828079224
            ], 
            "type" : "VEC2"
        }
    ], 
    "asset" : {
        "generator" : "Khronos Blender glTF 2.0 exporter", 
        "version" : "2.0"
    }, 
    "bufferViews" : [
        {
            "buffer" : 0, 
            "byteLength" : 378, 
            "byteOffset" : 0, 
            "target" : 34963
        }, 
        {
            "buffer" : 0, 
            "byteLength" : 3072, 
            "byteOffset" : 380, 
            "target" : 34962
        }, 
        {
            "buffer" : 0, 
            "byteLength" : 3072, 
            "byteOffset" : 3452, 
            "target" : 34962
        }, 
        {
            "buffer" : 0, 
            "byteLength" : 2048, 
            "byteOffset" : 6524, 
            "target" : 34962
        }
    ], 
    "buffers" : [
        {
            "byteLength" : 8572, 
            "uri" : "orange.bin"
        }
    ], 
    "extensionsUsed" : [
        "KHR_materials_unlit"
    ], 
    "images" : [
        {
            "name" : "orange", 
            "uri" : "orange.jpg"
        }
    ], 
    "materials" : [
        {
            "extensions" : {
                "KHR_materials_unlit" : {}
            }, 
            "name" : "Orange", 
            "pbrMetallicRoughness" : {
                "baseColorFactor" : [
                    0.6400000190734865, 
                    0.6400000190734865, 
                    0.6400000190734865, 
                    1.0
                ], 
                "baseColorTexture" : {
                    "index" : 0
                }, 
                "metallicFactor" : 0.0, 
                "roughnessFactor" : 0.9
            }
        }
    ], 
    "meshes" : [
        {
            "name" : "Sphere", 
            "primitives" : [
                {
                    "attributes" : {
                        "NORMAL" : 2, 
                        "POSITION" : 1, 
                        "TEXCOORD_0" : 3
                    }, 
                    "indices" : 0, 
                    "material" : 0
                }
            ]
        }
    ], 
    "nodes" : [
        {
            "mesh" : 0, 
            "name" : "Orange", 
            "rotation" : [
                0.20344316959381104, 
                -0.5171608328819275, 
                0.12808473408222198, 
                0.821431577205658
            ], 
            "scale" : [
                0.8177482485771179, 
                0.8177483677864075, 
                0.8177483081817627
            ]
        }
    ], 
    "samplers" : [
        {}
    ], 
    "scene" : 0, 
    "scenes" : [
        {
            "name" : "Scene", 
            "nodes" : [
                0
            ]
        }
    ], 
    "textures" : [
        {
            "sampler" : 0, 
            "source" : 0
        }
    ]
}
