{
    "accessors" : [
        {
            "bufferView" : 0, 
            "componentType" : 5121, 
            "count" : 138, 
            "max" : [
                73
            ], 
            "min" : [
                0
            ], 
            "type" : "SCALAR"
        }, 
        {
            "bufferView" : 1, 
            "componentType" : 5126, 
            "count" : 74, 
            "max" : [
                0.6775417923927307, 
                0.5315027236938477, 
                0.16209709644317627
            ], 
            "min" : [
                -0.7389810681343079, 
                -0.5375611186027527, 
                -0.16209709644317627
            ], 
            "type" : "VEC3"
        }, 
        {
            "bufferView" : 2, 
            "componentType" : 5126, 
            "count" : 74, 
            "max" : [
                0.5946766138076782, 
                0.9981176257133484, 
                0.9993600249290466
            ], 
            "min" : [
                -0.5879499912261963, 
                -0.9999082684516907, 
                -0.9997546672821045
            ], 
            "type" : "VEC3"
        }, 
        {
            "bufferView" : 3, 
            "componentType" : 5126, 
            "count" : 74, 
            "max" : [
                0.9622713327407837, 
                0.9546991586685181
            ], 
            "min" : [
                0.044923778623342514, 
                0.029052913188934326
            ], 
            "type" : "VEC2"
        }
    ], 
    "asset" : {
        "generator" : "Khronos Blender glTF 2.0 exporter", 
        "version" : "2.0"
    }, 
    "bufferViews" : [
        {
            "buffer" : 0, 
            "byteLength" : 138, 
            "byteOffset" : 0, 
            "target" : 34963
        }, 
        {
            "buffer" : 0, 
            "byteLength" : 888, 
            "byteOffset" : 140, 
            "target" : 34962
        }, 
        {
            "buffer" : 0, 
            "byteLength" : 888, 
            "byteOffset" : 1028, 
            "target" : 34962
        }, 
        {
            "buffer" : 0, 
            "byteLength" : 592, 
            "byteOffset" : 1916, 
            "target" : 34962
        }
    ], 
    "buffers" : [
        {
            "byteLength" : 2508, 
            "uri" : "peas.bin"
        }
    ], 
    "extensionsUsed" : [
        "KHR_materials_unlit"
    ], 
    "images" : [
        {
            "name" : "peas", 
            "uri" : "peas.jpg"
        }
    ], 
    "materials" : [
        {
            "extensions" : {
                "KHR_materials_unlit" : {}
            }, 
            "name" : "Peas", 
            "pbrMetallicRoughness" : {
                "baseColorFactor" : [
                    0.6400000190734865, 
                    0.6400000190734865, 
                    0.6400000190734865, 
                    1.0
                ], 
                "baseColorTexture" : {
                    "index" : 0
                }, 
                "metallicFactor" : 0.0, 
                "roughnessFactor" : 0.9
            }
        }
    ], 
    "meshes" : [
        {
            "name" : "Cube.003", 
            "primitives" : [
                {
                    "attributes" : {
                        "NORMAL" : 2, 
                        "POSITION" : 1, 
                        "TEXCOORD_0" : 3
                    }, 
                    "indices" : 0, 
                    "material" : 0
                }
            ]
        }
    ], 
    "nodes" : [
        {
            "mesh" : 0, 
            "name" : "Peas", 
            "rotation" : [
                0.00011462433030828834, 
                0.6913328170776367, 
                1.7065282008843496e-05, 
                0.7225365042686462
            ], 
            "scale" : [
                1.0, 
                1.0, 
                0.9999999403953552
            ]
        }
    ], 
    "samplers" : [
        {}
    ], 
    "scene" : 0, 
    "scenes" : [
        {
            "name" : "Scene", 
            "nodes" : [
                0
            ]
        }
    ], 
    "textures" : [
        {
            "sampler" : 0, 
            "source" : 0
        }
    ]
}
